<svg width="575" height="526" viewBox="0 0 575 526" fill="none" xmlns="http://www.w3.org/2000/svg">
<mask id="mask0_44_34" style="mask-type:alpha" maskUnits="userSpaceOnUse" x="65" y="181" width="444" height="164">
<path d="M66.4461 193.345C81.0791 186.795 95.8081 186.571 110.633 192.673C125.458 198.775 140.187 198.552 154.82 192.002C169.453 185.453 184.182 185.229 199.008 191.331C213.833 197.433 228.562 197.209 243.195 190.66C257.828 184.11 272.557 183.887 287.382 189.989C302.207 196.091 316.936 195.867 331.569 189.318C346.202 182.768 360.931 182.544 375.756 188.646C390.581 194.748 405.31 194.525 419.943 187.975C434.576 181.426 449.305 181.202 464.13 187.304C478.956 193.406 493.685 193.182 508.318 186.633" stroke="#4C75F2" stroke-width="2"/>
<path d="M66.3914 209.631C81.0244 203.082 95.7534 202.858 110.579 208.96C125.404 215.062 140.133 214.838 154.766 208.289C169.399 201.739 184.128 201.516 198.953 207.618C213.778 213.72 228.507 213.496 243.14 206.947C257.773 200.397 272.502 200.173 287.327 206.275C302.152 212.377 316.881 212.154 331.514 205.604C346.147 199.055 360.876 198.831 375.701 204.933C390.527 211.035 405.256 210.811 419.889 204.262C434.522 197.712 449.251 197.489 464.076 203.591C478.901 209.693 493.63 209.469 508.263 202.919" stroke="#4C75F2" stroke-width="2"/>
<path d="M66.3372 225.917C80.9702 219.368 95.6992 219.144 110.524 225.246C125.349 231.348 140.079 231.124 154.711 224.575C169.344 218.026 184.074 217.802 198.899 223.904C213.724 230.006 228.453 229.782 243.086 223.233C257.719 216.683 272.448 216.459 287.273 222.561C302.098 228.663 316.827 228.44 331.46 221.89C346.093 215.341 360.822 215.117 375.647 221.219C390.472 227.321 405.201 227.097 419.834 220.548C434.467 213.998 449.196 213.775 464.022 219.877C478.847 225.979 493.576 225.755 508.209 219.206" stroke="#4C75F2" stroke-width="2"/>
<path d="M66.2835 242.204C80.9165 235.654 95.6455 235.431 110.471 241.533C125.296 247.635 140.025 247.411 154.658 240.861C169.291 234.312 184.02 234.088 198.845 240.19C213.67 246.292 228.399 246.068 243.032 239.519C257.665 232.97 272.394 232.746 287.219 238.848C302.044 244.95 316.773 244.726 331.406 238.177C346.039 231.627 360.768 231.404 375.594 237.505C390.419 243.607 405.148 243.384 419.781 236.834C434.414 230.285 449.143 230.061 463.968 236.163C478.793 242.265 493.522 242.041 508.155 235.492" stroke="#4C75F2" stroke-width="2"/>
<path d="M66.2288 258.49C80.8618 251.941 95.5908 251.717 110.416 257.819C125.241 263.921 139.97 263.697 154.603 257.148C169.236 250.599 183.965 250.375 198.79 256.477C213.615 262.579 228.344 262.355 242.977 255.806C257.61 249.256 272.339 249.032 287.165 255.134C301.99 261.236 316.719 261.013 331.352 254.463C345.985 247.914 360.714 247.69 375.539 253.792C390.364 259.894 405.093 259.67 419.726 253.121C434.359 246.571 449.088 246.348 463.913 252.45C478.738 258.552 493.467 258.328 508.1 251.779" stroke="#4C75F2" stroke-width="2"/>
<path d="M66.1751 274.777C80.8081 268.227 95.5371 268.004 110.362 274.106C125.187 280.208 139.916 279.984 154.549 273.434C169.182 266.885 183.911 266.661 198.737 272.763C213.562 278.865 228.291 278.641 242.924 272.092C257.557 265.543 272.286 265.319 287.111 271.421C301.936 277.523 316.665 277.299 331.298 270.75C345.931 264.2 360.66 263.977 375.485 270.078C390.31 276.18 405.039 275.957 419.672 269.407C434.305 262.858 449.034 262.634 463.859 268.736C478.685 274.838 493.414 274.614 508.047 268.065" stroke="#4C75F2" stroke-width="2"/>
<path d="M66.1209 291.063C80.7539 284.513 95.4829 284.29 110.308 290.392C125.133 296.494 139.862 296.27 154.495 289.721C169.128 283.171 183.857 282.947 198.682 289.049C213.507 295.151 228.237 294.928 242.869 288.378C257.502 281.829 272.231 281.605 287.057 287.707C301.882 293.809 316.611 293.585 331.244 287.036C345.877 280.486 360.606 280.263 375.431 286.365C390.256 292.467 404.985 292.243 419.618 285.693C434.251 279.144 448.98 278.92 463.805 285.022C478.63 291.124 493.359 290.901 507.992 284.351" stroke="#4C75F2" stroke-width="2"/>
<path d="M66.0662 307.35C80.6992 300.8 95.4282 300.576 110.253 306.678C125.078 312.78 139.808 312.557 154.44 306.007C169.073 299.458 183.803 299.234 198.628 305.336C213.453 311.438 228.182 311.214 242.815 304.665C257.448 298.115 272.177 297.892 287.002 303.994C301.827 310.096 316.556 309.872 331.189 303.322C345.822 296.773 360.551 296.549 375.376 302.651C390.201 308.753 404.93 308.529 419.563 301.98C434.196 295.431 448.925 295.207 463.751 301.309C478.576 307.411 493.305 307.187 507.938 300.638" stroke="#4C75F2" stroke-width="2"/>
<path d="M66.0125 323.636C80.6455 317.086 95.3745 316.863 110.2 322.965C125.025 329.067 139.754 328.843 154.387 322.294C169.02 315.744 183.749 315.52 198.574 321.622C213.399 327.724 228.128 327.501 242.761 320.951C257.394 314.402 272.123 314.178 286.948 320.28C301.773 326.382 316.502 326.158 331.135 319.609C345.768 313.059 360.497 312.836 375.323 318.938C390.148 325.04 404.877 324.816 419.51 318.266C434.143 311.717 448.872 311.493 463.697 317.595C478.522 323.697 493.251 323.474 507.884 316.924" stroke="#4C75F2" stroke-width="2"/>
<path d="M65.9578 339.923C80.5908 333.373 95.3198 333.149 110.145 339.251C124.97 345.353 139.699 345.13 154.332 338.58C168.965 332.031 183.694 331.807 198.519 337.909C213.344 344.011 228.073 343.787 242.706 337.238C257.339 330.688 272.068 330.465 286.894 336.567C301.719 342.669 316.448 342.445 331.081 335.895C345.714 329.346 360.443 329.122 375.268 335.224C390.093 341.326 404.822 341.102 419.455 334.553C434.088 328.004 448.817 327.78 463.642 333.882C478.467 339.984 493.196 339.76 507.829 333.211" stroke="#4C75F2" stroke-width="2"/>
</mask>
<g mask="url(#mask0_44_34)">
<circle cx="329.268" cy="263.758" r="71.8366" transform="rotate(-0.870228 329.268 263.758)" fill="url(#paint0_linear_44_34)"/>
</g>
<defs>
<linearGradient id="paint0_linear_44_34" x1="329.268" y1="191.922" x2="329.268" y2="335.595" gradientUnits="userSpaceOnUse">
<stop stop-color="#9697A4"/>
<stop offset="1" stop-color="white"/>
</linearGradient>
</defs>
</svg>
